<svg
  xmlns="http://www.w3.org/2000/svg"
  xmlns:xlink="http://www.w3.org/1999/xlink"
  version="1.1"
  width="1080pt"
  height="1080pt"
  viewBox="0 0 1080 1080"
>
  <defs>
    <clipPath id="clip_0">
      <path transform="matrix(1,0,0,-1,0,1080)" d="M0 0H1080V1080H0Z" />
    </clipPath>
    <clipPath id="clip_1">
      <path transform="matrix(1,0,0,-1,0,1080)" d="M104.2559 191.8848H975.7442V659.7637H104.2559Z" />
    </clipPath>
    <path
      id="font_2_7"
      d="M.24414063 .24414063C.08138021 .24414063 0 .31803385 0 .4658203 0 .6110026 .08138021 .68359377 .24414063 .68359377H.6347656V.48828126H.24414063C.21158855 .48828126 .1953125 .48079429 .1953125 .4658203 .1953125 .4482422 .21158855 .43945313 .24414063 .43945313H.390625C.55338546 .43945313 .6347656 .36686198 .6347656 .22167969 .6347656 .07389323 .55338546 0 .390625 0H0V.1953125H.390625C.4231771 .1953125 .43945313 .20410156 .43945313 .22167969 .43945313 .23665364 .4231771 .24414063 .390625 .24414063H.24414063Z"
    />
    <path
      id="font_2_5"
      d="M.1953125 .1953125V0H0V.68359377H.390625C.55338546 .68359377 .6347656 .60221359 .6347656 .43945313 .6347656 .27669273 .55338546 .1953125 .390625 .1953125H.1953125M.1953125 .48828126V.390625H.390625C.4231771 .390625 .43945313 .40690104 .43945313 .43945313 .43945313 .47200523 .4231771 .48828126 .390625 .48828126H.1953125Z"
    />
    <path
      id="font_2_2"
      d="M.5859375 .68359377V.48828126H.1953125V.43945313H.48828126V.24414063H.1953125V.1953125H.5859375V0H0V.68359377H.5859375Z"
    />
    <path id="font_2_3" d="M0 .68359377H.1953125V.1953125H.5859375V0H0V.68359377Z" />
    <clipPath id="clip_3">
      <path transform="matrix(1,0,0,-1,0,1080)" d="M172.6152 389.8848H907.38467V857.7637H172.6152Z" />
    </clipPath>
    <path
      id="font_2_4"
      d="M.34179688 0C.24739583 0 .16682942 .033365888 .100097659 .100097659 .033365888 .16682942 0 .24739583 0 .34179688 0 .4361979 .033365888 .51676437 .100097659 .5834961 .16682942 .65022787 .24739583 .68359377 .34179688 .68359377 .4361979 .68359377 .51676437 .65022787 .5834961 .5834961 .65022787 .51676437 .68359377 .4361979 .68359377 .34179688 .68359377 .24739583 .65022787 .16682942 .5834961 .100097659 .51676437 .033365888 .4361979 0 .34179688 0M.34179688 .1953125C.38216148 .1953125 .41666667 .20963542 .4453125 .23828125 .47395835 .2669271 .48828126 .30143229 .48828126 .34179688 .48828126 .38216148 .47395835 .41666667 .4453125 .4453125 .41666667 .47395835 .38216148 .48828126 .34179688 .48828126 .30143229 .48828126 .2669271 .47395835 .23828125 .4453125 .20963542 .41666667 .1953125 .38216148 .1953125 .34179688 .1953125 .30143229 .20963542 .2669271 .23828125 .23828125 .2669271 .20963542 .30143229 .1953125 .34179688 .1953125Z"
    />
    <path
      id="font_2_6"
      d="M.1953125 .48828126V.390625H.390625C.4231771 .390625 .43945313 .40690104 .43945313 .43945313 .43945313 .47200523 .4231771 .48828126 .390625 .48828126H.1953125M.1953125 .1953125V0H0V.68359377H.390625C.55338546 .68359377 .6347656 .60221359 .6347656 .43945313 .6347656 .27669273 .56966146 .1953125 .43945313 .1953125L.6347656 0H.390625L.1953125 .1953125Z"
    />
    <path
      id="font_2_1"
      d="M0 0V.68359377H.34179688C.5371094 .68359377 .6347656 .56966146 .6347656 .34179688 .6347656 .11393229 .5371094 0 .34179688 0H0M.1953125 .48828126V.1953125H.34179688C.40690104 .1953125 .43945313 .24414063 .43945313 .34179688 .43945313 .43945313 .40690104 .48828126 .34179688 .48828126H.1953125Z"
    />
  </defs>
  <g clip-path="url(#clip_0)">
    <path transform="matrix(1,0,0,-1,0,1080)" d="M0 1080H1080V0H0Z" fill="#005399" fill-opacity="0" />
    <path
      transform="matrix(1,0,0,-1,0,1080)"
      d="M165.7646 1080H914.2354C962.8789 1080 992.065 1080 1011.522 1071.877 1039.572 1061.668 1061.668 1039.572 1071.877 1011.522 1080 992.065 1080 962.8789 1080 914.2354V165.7646C1080 117.1211 1080 87.93501 1071.877 68.47761 1061.668 40.42808 1039.572 18.3324 1011.522 8.123204 992.065 0 962.8789 0 914.2354 0H165.7646C117.1211 0 87.93501 0 68.47761 8.123204 40.42808 18.3324 18.3324 40.42808 8.123204 68.47761 0 87.93501 0 117.1211 0 165.7646V914.2354C0 962.8789 0 992.065 8.123204 1011.522 18.3324 1039.572 40.42808 1061.668 68.47761 1071.877 87.93501 1080 117.1211 1080 165.7646 1080ZM165.7646 1080"
      fill="#005399"
    />
    <path
      transform="matrix(1,0,0,-1,0,1080)"
      d="M845.4701 845.4701C1014.177 676.7636 1014.177 403.2364 845.4701 234.5299 676.7636 65.82338 403.2364 65.82338 234.5299 234.5299 65.82338 403.2364 65.82338 676.7636 234.5299 845.4701 403.2364 1014.177 676.7636 1014.177 845.4701 845.4701ZM845.4701 845.4701"
      fill="#ffdf00"
    />
  </g>
  <g clip-path="url(#clip_1)">
    <use data-text="s" xlink:href="#font_2_7" transform="matrix(280,0,0,-280,177.6953,727.6758)" fill="#005399" />
    <use data-text="p" xlink:href="#font_2_5" transform="matrix(280,0,0,-280,369.1033,727.6758)" fill="#005399" />
    <use data-text="e" xlink:href="#font_2_2" transform="matrix(280,0,0,-280,560.5113,727.6758)" fill="#005399" />
    <use data-text="l" xlink:href="#font_2_3" transform="matrix(280,0,0,-280,738.19937,727.6758)" fill="#005399" />
  </g>
  <g clip-path="url(#clip_3)">
    <use data-text="o" xlink:href="#font_2_4" transform="matrix(280,0,0,-280,246.0547,529.6758)" fill="#005399" />
    <use data-text="r" xlink:href="#font_2_6" transform="matrix(280,0,0,-280,451.1267,529.6758)" fill="#005399" />
    <use data-text="d" xlink:href="#font_2_1" transform="matrix(280,0,0,-280,642.47879,529.6758)" fill="#005399" />
  </g>
</svg>
