<svg
  xmlns="http://www.w3.org/2000/svg"
  xmlns:xlink="http://www.w3.org/1999/xlink"
  version="1.1"
  width="1920pt"
  height="1080pt"
  viewBox="0 0 1920 1080"
>
  <defs>
    <clipPath id="clip_0">
      <path transform="matrix(1,0,0,-1,0,1080)" d="M0 0H1920V1080H0Z" />
    </clipPath>
    <clipPath id="clip_1">
      <path transform="matrix(1,0,0,-1,0,1080)" d="M48.01318 228.856H1871.9872V813.2046H48.01318Z" />
    </clipPath>
    <path
      id="font_2_4"
      d="M.34179688 0C.24739583 0 .16682942 .033365888 .100097659 .100097659 .033365888 .16682942 0 .24739583 0 .34179688 0 .4361979 .033365888 .51676437 .100097659 .5834961 .16682942 .65022787 .24739583 .68359377 .34179688 .68359377 .4361979 .68359377 .51676437 .65022787 .5834961 .5834961 .65022787 .51676437 .68359377 .4361979 .68359377 .34179688 .68359377 .24739583 .65022787 .16682942 .5834961 .100097659 .51676437 .033365888 .4361979 0 .34179688 0M.34179688 .1953125C.38216148 .1953125 .41666667 .20963542 .4453125 .23828125 .47395835 .2669271 .48828126 .30143229 .48828126 .34179688 .48828126 .38216148 .47395835 .41666667 .4453125 .4453125 .41666667 .47395835 .38216148 .48828126 .34179688 .48828126 .30143229 .48828126 .2669271 .47395835 .23828125 .4453125 .20963542 .41666667 .1953125 .38216148 .1953125 .34179688 .1953125 .30143229 .20963542 .2669271 .23828125 .23828125 .2669271 .20963542 .30143229 .1953125 .34179688 .1953125Z"
    />
    <path
      id="font_2_6"
      d="M.1953125 .48828126V.390625H.390625C.4231771 .390625 .43945313 .40690104 .43945313 .43945313 .43945313 .47200523 .4231771 .48828126 .390625 .48828126H.1953125M.1953125 .1953125V0H0V.68359377H.390625C.55338546 .68359377 .6347656 .60221359 .6347656 .43945313 .6347656 .27669273 .56966146 .1953125 .43945313 .1953125L.6347656 0H.390625L.1953125 .1953125Z"
    />
    <path
      id="font_2_1"
      d="M0 0V.68359377H.34179688C.5371094 .68359377 .6347656 .56966146 .6347656 .34179688 .6347656 .11393229 .5371094 0 .34179688 0H0M.1953125 .48828126V.1953125H.34179688C.40690104 .1953125 .43945313 .24414063 .43945313 .34179688 .43945313 .43945313 .40690104 .48828126 .34179688 .48828126H.1953125Z"
    />
    <path
      id="font_2_7"
      d="M.24414063 .24414063C.08138021 .24414063 0 .31803385 0 .4658203 0 .6110026 .08138021 .68359377 .24414063 .68359377H.6347656V.48828126H.24414063C.21158855 .48828126 .1953125 .48079429 .1953125 .4658203 .1953125 .4482422 .21158855 .43945313 .24414063 .43945313H.390625C.55338546 .43945313 .6347656 .36686198 .6347656 .22167969 .6347656 .07389323 .55338546 0 .390625 0H0V.1953125H.390625C.4231771 .1953125 .43945313 .20410156 .43945313 .22167969 .43945313 .23665364 .4231771 .24414063 .390625 .24414063H.24414063Z"
    />
    <path
      id="font_2_5"
      d="M.1953125 .1953125V0H0V.68359377H.390625C.55338546 .68359377 .6347656 .60221359 .6347656 .43945313 .6347656 .27669273 .55338546 .1953125 .390625 .1953125H.1953125M.1953125 .48828126V.390625H.390625C.4231771 .390625 .43945313 .40690104 .43945313 .43945313 .43945313 .47200523 .4231771 .48828126 .390625 .48828126H.1953125Z"
    />
    <path
      id="font_2_2"
      d="M.5859375 .68359377V.48828126H.1953125V.43945313H.48828126V.24414063H.1953125V.1953125H.5859375V0H0V.68359377H.5859375Z"
    />
    <path id="font_2_3" d="M0 .68359377H.1953125V.1953125H.5859375V0H0V.68359377Z" />
  </defs>
  <g clip-path="url(#clip_0)">
    <path transform="matrix(1,0,0,-1,0,1080)" d="M0 1080H1920V0H0Z" fill="#ffffff" />
    <path
      transform="matrix(1,0,0,-1,0,1080)"
      d="M.00001811981 1080H1920V-.00001811981H.00001811981V1080ZM.00001811981 1080"
      fill="#005399"
    />
    <path
      transform="matrix(1,0,0,-1,0,1080)"
      d="M1601.444 900.8123C1955.704 701.5412 1955.704 378.4589 1601.444 179.1877 1247.184-20.0834 672.8157-20.0834 318.5559 179.1877-35.70388 378.4589-35.70388 701.5412 318.5559 900.8123 672.8157 1100.083 1247.184 1100.083 1601.444 900.8123ZM1601.444 900.8123"
      fill="#ffdf00"
    />
  </g>
  <g clip-path="url(#clip_1)">
    <use data-text="o" xlink:href="#font_2_4" transform="matrix(350,0,0,-350,139.6875,650.5947)" fill="#005399" />
    <use data-text="r" xlink:href="#font_2_6" transform="matrix(350,0,0,-350,396.02754,650.5947)" fill="#005399" />
    <use data-text="d" xlink:href="#font_2_1" transform="matrix(350,0,0,-350,635.2175,650.5947)" fill="#005399" />
    <use data-text="s" xlink:href="#font_2_7" transform="matrix(350,0,0,-350,874.4076,650.5947)" fill="#005399" />
    <use data-text="p" xlink:href="#font_2_5" transform="matrix(350,0,0,-350,1113.5977,650.5947)" fill="#005399" />
    <use data-text="e" xlink:href="#font_2_2" transform="matrix(350,0,0,-350,1352.7877,650.5947)" fill="#005399" />
    <use data-text="l" xlink:href="#font_2_3" transform="matrix(350,0,0,-350,1574.8278,650.5947)" fill="#005399" />
  </g>
</svg>
