<?xml version="1.0" standalone="no"?>
<!DOCTYPE svg PUBLIC "-//W3C//DTD SVG 20010904//EN"
 "http://www.w3.org/TR/2001/REC-SVG-20010904/DTD/svg10.dtd">
<svg version="1.0" xmlns="http://www.w3.org/2000/svg"
 width="2048.000000pt" height="2048.000000pt" viewBox="0 0 2048.000000 2048.000000"
 preserveAspectRatio="xMidYMid meet">
<metadata>
Created by potrace 1.14, written by Peter Selinger 2001-2017
</metadata>
<g transform="translate(0.000000,2048.000000) scale(0.100000,-0.100000)"
fill="#000000" stroke="none">
<path d="M2176 20469 c-371 -15 -600 -49 -811 -120 -298 -101 -551 -256 -765
-469 -213 -214 -368 -467 -469 -765 -73 -219 -104 -434 -121 -855 -13 -335
-13 -15705 0 -16040 17 -421 48 -636 121 -855 174 -515 523 -912 1004 -1141
301 -143 551 -192 1085 -214 335 -13 15705 -13 16040 0 421 17 636 48 855 121
515 174 912 523 1141 1004 143 301 192 551 214 1085 13 335 13 15705 0 16040
-17 421 -48 636 -121 855 -174 515 -523 912 -1004 1141 -301 143 -551 192
-1085 214 -298 12 -15787 11 -16084 -1z m8714 -2063 c1978 -168 3753 -988
5140 -2376 1301 -1301 2110 -2955 2339 -4785 45 -357 55 -550 55 -1005 0 -455
-10 -648 -55 -1005 -229 -1830 -1038 -3484 -2339 -4785 -1391 -1391 -3154
-2205 -5150 -2377 -290 -25 -990 -25 -1280 0 -1996 172 -3759 986 -5150 2377
-1391 1391 -2205 3154 -2377 5150 -25 290 -25 990 0 1280 172 1996 986 3759
2377 5150 802 803 1726 1411 2768 1824 841 333 1690 516 2652 570 157 9 846
-4 1020 -18z"/>
<path d="M6230 14055 c-455 -63 -839 -280 -1148 -650 -93 -111 -165 -220 -230
-350 -235 -471 -240 -1095 -13 -1570 87 -181 179 -316 319 -466 289 -309 635
-494 1047 -560 133 -22 476 -17 617 9 364 67 674 231 946 502 264 263 423 553
499 909 26 118 27 143 27 376 0 233 -1 258 -27 376 -83 390 -274 717 -577 986
-283 252 -613 400 -985 443 -120 13 -358 11 -475 -5z m460 -1056 c263 -73 475
-285 546 -549 23 -83 25 -291 5 -370 -57 -221 -210 -414 -410 -514 -227 -115
-514 -105 -734 25 -92 54 -222 183 -275 274 -22 39 -53 106 -69 150 -26 75
-28 91 -27 240 0 146 2 167 26 238 78 233 286 436 513 502 33 10 82 21 110 26
76 12 231 2 315 -22z"/>
<path d="M8550 12255 l0 -1815 525 0 525 0 0 512 0 513 513 -513 512 -512 648
0 c356 0 647 3 647 7 0 5 -230 238 -511 519 l-511 511 104 6 c435 25 726 263
852 698 76 266 93 709 35 987 -103 502 -386 773 -919 879 -76 15 -206 17
-1252 20 l-1168 4 0 -1816z m2163 760 c111 -29 158 -90 165 -215 7 -126 -27
-204 -108 -250 l-45 -25 -562 -3 -563 -3 0 256 0 255 528 0 c436 0 538 -3 585
-15z"/>
<path d="M12180 12255 l0 -1815 953 0 c587 0 996 4 1067 11 286 26 526 103
719 230 93 61 238 205 310 306 243 341 356 891 311 1521 -25 344 -84 588 -201
829 -205 421 -560 656 -1084 719 -96 11 -314 14 -1097 14 l-978 0 0 -1815z
m1921 761 c191 -41 305 -167 365 -403 49 -193 49 -522 0 -715 -54 -212 -148
-330 -311 -390 -58 -21 -76 -22 -497 -26 l-438 -4 0 776 0 776 408 0 c311 0
423 -4 473 -14z"/>
<path d="M4500 10309 c-550 -37 -896 -253 -1041 -650 -61 -167 -73 -250 -73
-499 0 -177 4 -244 18 -314 74 -365 257 -606 562 -739 120 -52 185 -70 414
-112 19 -4 298 -10 620 -13 564 -7 587 -8 630 -28 56 -26 72 -44 73 -87 1 -48
-26 -85 -81 -110 l-47 -22 -1097 -3 -1098 -2 0 -521 0 -520 1183 4 c1078 2
1190 4 1270 20 528 106 804 371 894 857 25 134 24 469 -1 594 -94 470 -378
735 -886 828 -105 20 -163 22 -695 28 -547 5 -583 7 -630 26 -53 21 -95 69
-95 110 0 12 12 36 26 53 53 63 15 61 1216 61 l1088 0 0 525 0 525 -1067 -1
c-588 -1 -1120 -5 -1183 -10z"/>
<path d="M7000 8505 l0 -1815 520 0 520 0 0 514 0 515 638 4 c601 4 643 5 752
26 528 99 823 396 916 921 27 148 27 562 1 695 -41 208 -92 343 -179 476 -187
287 -488 437 -943 469 -79 5 -595 10 -1182 10 l-1043 0 0 -1815z m2171 755
c58 -16 101 -51 128 -105 22 -43 26 -62 26 -140 -1 -102 -20 -152 -75 -198
-60 -51 -74 -52 -660 -52 l-545 0 -3 253 -2 252 547 0 c336 0 562 -4 584 -10z"/>
<path d="M10627 10313 c-4 -3 -7 -820 -7 -1815 l0 -1808 1560 0 1560 0 0 520
0 520 -1035 0 -1035 0 0 125 0 125 775 0 775 0 0 520 0 520 -775 0 -775 0 0
125 0 125 1033 2 1032 3 0 520 0 520 -1551 3 c-853 1 -1554 -1 -1557 -5z"/>
<path d="M13990 8505 l0 -1815 1555 0 1555 0 0 520 0 520 -1035 0 -1035 0 0
1295 0 1295 -520 0 -520 0 0 -1815z"/>
</g>
</svg>
